<svg width="1552" height="1192" viewBox="0 0 1552 1192" fill="none" xmlns="http://www.w3.org/2000/svg">
<path d="M310.001 1166.67L686.466 1088.69C692.648 1087.41 698.539 1084.94 703.443 1080.96C713.429 1072.86 730.33 1057.28 735.823 1040.8C743.156 1018.81 735.823 979.287 735.823 979.287L598.82 138.109C598.82 138.109 591.228 89.1345 569.939 69.1847C549.106 49.6631 501.067 44.7275 501.067 44.7275L131.931 16.1417C129.198 15.93 126.46 15.9553 123.731 16.2187L98.2018 18.6834M310.001 1166.67C310.001 1166.67 284.904 1164.71 270.752 1157.9C256.887 1151.22 242.936 1134.79 235.27 1124.72C231.172 1119.33 228.78 1113.24 227.722 1106.55C211.307 1002.84 70.7147 113.971 69.3201 83.266C67.8389 50.6565 83.3928 36.5751 98.2018 18.6834M310.001 1166.67C310.001 1166.67 262.533 1180.16 232.245 1174.2C219.878 1171.77 205.723 1165.72 194.609 1160.24C182.064 1154.06 174.064 1142.26 171.932 1128.43C149.176 980.845 15.9983 116.263 16 96.6063C16.0019 75.1137 26.3678 42.5041 59.6928 29.1639C73.0733 23.8076 83.9535 20.8464 98.2018 18.6834M212.99 453.088L207.007 411.505C203.053 384.026 223.422 359.038 251.115 357.396L299.635 354.518M570.679 433.818L565.369 386.751C562.536 361.637 540.522 343.157 515.316 344.733L465.52 347.848M246.315 673.202L254.759 728.328C258.696 754.035 282.584 771.774 308.31 768.096L360.361 760.655M600.301 624.288L608.631 678.673C612.613 704.67 594.699 728.945 568.701 732.784L525.505 739.162M682.823 347.848L941.323 498.642M930.288 429.857V299.472C930.288 290.249 932.975 281.226 938.02 273.508L1007.31 167.498M1007.31 167.498V127.971C1007.31 102.282 1033.71 85.0871 1057.18 95.4958C1066.87 99.7911 1077.96 99.533 1087.44 94.792L1096.1 90.4551C1109.52 83.7437 1125.68 86.0378 1136.7 96.2167L1137.35 96.8214C1148.9 107.487 1166.16 109.101 1179.5 100.787C1192.82 92.4856 1210.06 94.1043 1221.58 104.762C1233.21 115.524 1250.66 117.057 1264 108.518C1277.27 100.031 1294.75 101.61 1306.42 112.186C1317.84 122.538 1334.79 124.466 1348.13 116.747L1349.53 115.938C1363.62 107.787 1381.34 109.609 1393.48 120.456L1397.59 124.126C1408.3 133.692 1423.04 137.584 1437.09 134.665C1465.82 128.699 1493.11 150.575 1493.11 179.932V218.636M1007.31 167.498L1493.11 218.636M1493.11 218.636L1433.44 329.255C1429.83 335.946 1427.88 343.409 1427.75 351.012L1417.57 973.839M1493.11 218.636L1531.33 305.877C1533.96 311.882 1535.32 318.367 1535.32 324.924V849.973C1535.32 856.872 1533.82 863.689 1530.92 869.947L1516.07 901.95M1417.57 973.839L947.321 890.833M1417.57 973.839L1443.34 1056.11M1417.57 973.839L1516.07 901.95M947.321 890.833L935.737 871.82C931.205 864.382 928.807 855.838 928.807 847.126V805.604M947.321 890.833L934.01 933.46C930.786 943.785 933.259 955.047 940.511 963.068C950.114 973.691 966.005 976.093 978.446 969.01C990.918 961.908 1006.83 964.151 1016.67 974.603L1019.29 977.387C1029.38 988.098 1045.19 991.129 1058.51 984.905C1071.73 978.731 1087.41 981.661 1097.52 992.193L1099.85 994.623C1109.48 1004.67 1124.64 1007.01 1136.86 1000.34C1148.76 993.843 1163.52 995.893 1173.2 1005.39L1176.61 1008.73C1186.96 1018.88 1202.62 1021.29 1215.54 1014.72C1228.68 1008.03 1244.64 1010.65 1254.96 1021.19L1257.68 1023.97C1267.35 1033.85 1282.28 1036.35 1294.64 1030.17C1307 1023.98 1321.93 1026.49 1331.6 1036.37L1334.15 1038.97C1344.1 1049.13 1359.54 1051.55 1372.12 1044.9C1383.14 1039.07 1396.53 1040.15 1406.48 1047.66L1419.93 1057.82C1427.06 1063.2 1437.07 1062.47 1443.34 1056.11M1516.07 901.95L1526.68 935.457C1532 952.227 1527.6 970.563 1515.26 983.092L1443.34 1056.11M744.323 710.142L941.323 755.142M990.273 429.857V385.86C990.273 357.555 1014.88 335.551 1042.99 338.727L1102.32 345.433M990.273 429.857L1350.92 476.642M990.273 429.857V521.642M1350.92 476.642V415.908C1350.92 391.772 1332.81 371.484 1308.85 368.775L1102.32 345.433M1350.92 476.642V573.642M990.273 521.642L1350.92 573.642M990.273 521.642V614.642M1350.92 573.642V669.642M990.273 614.642L1350.92 669.642M990.273 614.642V700.142M1350.92 669.642V757.142M990.273 700.142V749.682C990.273 772.946 1007.13 792.777 1030.08 796.502L1096.82 807.337M990.273 700.142L1350.92 757.142M1350.92 757.142V792.842C1350.92 822.069 1324.77 844.342 1295.94 839.662L1096.82 807.337M1102.32 345.433L1096.82 807.337" stroke="black" stroke-width="32" stroke-linecap="round"/>
</svg>
